<?xml version="1.0" standalone="no"?>
<!DOCTYPE svg PUBLIC "-//W3C//DTD SVG 20010904//EN"
 "http://www.w3.org/TR/2001/REC-SVG-20010904/DTD/svg10.dtd">
<svg version="1.0" xmlns="http://www.w3.org/2000/svg"
 width="512.000000pt" height="512.000000pt" viewBox="0 0 512.000000 512.000000"
 preserveAspectRatio="xMidYMid meet">
<metadata>
Created by potrace 1.14, written by Peter Selinger 2001-2017
</metadata>
<g transform="translate(0.000000,512.000000) scale(0.100000,-0.100000)"
fill="#000000" stroke="none">
<path d="M1282 4788 c-28 -17 -62 -63 -68 -90 -1 -5 -2 -388 -3 -852 l-1 -843
-38 -7 c-52 -8 -149 -59 -195 -101 -45 -43 -94 -109 -112 -152 l-14 -33 -120
0 -121 0 0 90 c0 119 -22 166 -93 198 -66 29 -154 -3 -186 -67 -19 -36 -21
-58 -21 -223 1 -201 6 -224 65 -270 28 -22 39 -23 203 -26 127 -3 172 -7 169
-15 -2 -7 -23 -70 -47 -142 -23 -71 -45 -133 -49 -137 -3 -4 -66 -8 -140 -9
-105 -1 -147 -6 -195 -22 -155 -52 -259 -163 -302 -322 -20 -72 -19 -1051 0
-1115 50 -167 167 -283 330 -326 77 -21 4356 -20 4433 0 156 42 270 150 322
303 18 54 19 91 20 573 0 299 -4 533 -9 557 -24 105 -98 213 -187 274 -81 56
-142 72 -307 78 l-149 6 -44 130 c-24 72 -46 138 -49 148 -5 16 7 17 153 17
268 1 282 16 283 303 0 185 -6 217 -49 257 -48 46 -134 50 -189 10 -45 -33
-62 -85 -62 -185 l0 -85 -118 0 -118 0 -36 63 c-65 112 -167 194 -277 220
l-51 12 0 395 c0 383 -1 396 -21 429 -29 48 -929 945 -967 965 -28 15 -114 16
-819 16 -782 -1 -788 -1 -821 -22z"/>
</g>
</svg>
